# xmcd
#
# Track frame offsets:
#	183
#	11783
#	24445
#	36245
#	49420
#	63533
#	78345
#	91258
#	105395
#	119020
#	133683
#	146495
#	160870
#	181033
#
# Disc length: 2589 seconds
#
# Revision: 1
# Processed by: cddbd v1.4PL0 Copyright (c) Steve Scherf et al.
# Submitted via: audiograbber 1.81.03
#
DISCID=b80a1b0e
DTITLE=Muddy Waters - The Great Muddy Waters [CD2]
DYEAR=1994
DGENRE=
TTITLE0=Gipsy Woman
TTITLE1=Train Fare Home Blues
TTITLE2=Kind Hearted Woman
TTITLE3=Down South Blues
TTITLE4=Rolling Stone
TTITLE5=Baby, Please Don't Go
TTITLE6=I Just Want To Make Love To You
TTITLE7=Smokestack Lightnin'
TTITLE8=Young Fashioned Ways
TTITLE9=Just To Be With You
TTITLE10=I Love The Life I Live, I Live The Life I Love
TTITLE11=Rock Me
TTITLE12=Tiger In Your Tank
TTITLE13=I Feel So Good
EXTD=
EXTT0=
EXTT1=
EXTT2=
EXTT3=
EXTT4=
EXTT5=
EXTT6=
EXTT7=
EXTT8=
EXTT9=
EXTT10=
EXTT11=
EXTT12=
EXTT13=
PLAYORDER=
